<?xml version="1.0" encoding="UTF-8" standalone="no"?>
<!-- Created with Inkscape (http://www.inkscape.org/) -->

<svg
   xmlns:dc="http://purl.org/dc/elements/1.1/"
   xmlns:cc="http://creativecommons.org/ns#"
   xmlns:rdf="http://www.w3.org/1999/02/22-rdf-syntax-ns#"
   xmlns:svg="http://www.w3.org/2000/svg"
   xmlns="http://www.w3.org/2000/svg"
   xmlns:sodipodi="http://sodipodi.sourceforge.net/DTD/sodipodi-0.dtd"
   xmlns:inkscape="http://www.inkscape.org/namespaces/inkscape"
   width="77.977928mm"
   height="83.528893mm"
   viewBox="0 0 77.977928 83.528893"
   version="1.1"
   id="svg4636"
   inkscape:version="0.92.2 (5c3e80d, 2017-08-06)"
   sodipodi:docname="ilogo2.svg">
  <defs
     id="defs4630" />
  <sodipodi:namedview
     id="base"
     pagecolor="#ffffff"
     bordercolor="#666666"
     borderopacity="1.0"
     inkscape:pageopacity="0.0"
     inkscape:pageshadow="2"
     inkscape:zoom="0.98994949"
     inkscape:cx="174.87745"
     inkscape:cy="206.67188"
     inkscape:document-units="mm"
     inkscape:current-layer="layer1"
     showgrid="false"
     fit-margin-top="0"
     fit-margin-left="0"
     fit-margin-right="0"
     fit-margin-bottom="0"
     inkscape:window-width="1920"
     inkscape:window-height="1052"
     inkscape:window-x="0"
     inkscape:window-y="0"
     inkscape:window-maximized="1" />
  <metadata
     id="metadata4633">
    <rdf:RDF>
      <cc:Work
         rdf:about="">
        <dc:format>image/svg+xml</dc:format>
        <dc:type
           rdf:resource="http://purl.org/dc/dcmitype/StillImage" />
        <dc:title></dc:title>
      </cc:Work>
    </rdf:RDF>
  </metadata>
  <g
     inkscape:label="Layer 1"
     inkscape:groupmode="layer"
     id="layer1"
     transform="translate(-6.4255955,-5.015316)">
    <path
       style="fill:#cb8a02;fill-opacity:1;stroke:#ffffff;stroke-width:0;stroke-opacity:0.1"
       inkscape:connector-curvature="0"
       id="path8-6"
       d="m 25.920076,10.566288 h 38.988969 a 19.49448,19.49448 0 0 1 19.49448,19.494479 V 69.04973 A 19.49448,19.49448 0 0 1 64.909045,88.54421 H 25.920076 A 19.49448,19.49448 0 0 1 6.425596,69.04973 V 30.060767 a 19.49448,19.49448 0 0 1 19.49448,-19.494479 z" />
    <path
       style="fill:#fdb827;stroke:#ffffff;stroke-width:0;stroke-opacity:0.1"
       inkscape:connector-curvature="0"
       id="path8-3"
       d="M 25.920076,5.0153165 H 64.90903 A 19.49448,19.49448 0 0 1 84.403495,24.509796 V 63.49876 A 19.49448,19.49448 0 0 1 64.90903,82.99323 H 25.920076 A 19.49448,19.49448 0 0 1 6.425601,63.49876 V 24.509796 A 19.49448,19.49448 0 0 1 25.920076,5.0153165 Z" />
    <rect
       style="fill:#ffffff;fill-opacity:1;stroke:#000000;stroke-width:0.25992641;stroke-linecap:round;stroke-linejoin:round;stroke-miterlimit:4;stroke-dasharray:none;stroke-opacity:0.14901961"
       id="rect4617"
       width="8.0733137"
       height="38.98896"
       x="41.377899"
       y="24.50979" />
  </g>
</svg>
